<?xml version="1.0" encoding="UTF-8" standalone="no"?>
<svg
   version="1.1"
   width="24"
   height="24"
   viewBox="0 0 24 24"
   id="svg9288"
   sodipodi:docname="calendar.svg"
   inkscape:version="1.2 (dc2aedaf03, 2022-05-15)"
   xmlns:inkscape="http://www.inkscape.org/namespaces/inkscape"
   xmlns:sodipodi="http://sodipodi.sourceforge.net/DTD/sodipodi-0.dtd"
   xmlns="http://www.w3.org/2000/svg"
   xmlns:svg="http://www.w3.org/2000/svg">
  <defs
     id="defs9292" />
  <sodipodi:namedview
     id="namedview9290"
     pagecolor="#ffffff"
     bordercolor="#000000"
     borderopacity="0.25"
     inkscape:showpageshadow="2"
     inkscape:pageopacity="0.0"
     inkscape:pagecheckerboard="0"
     inkscape:deskcolor="#d1d1d1"
     showgrid="false"
     inkscape:zoom="34.875"
     inkscape:cx="7.4121864"
     inkscape:cy="12.014337"
     inkscape:window-width="1920"
     inkscape:window-height="1017"
     inkscape:window-x="-8"
     inkscape:window-y="-8"
     inkscape:window-maximized="1"
     inkscape:current-layer="svg9288" />
  <path
     d="M19,19H5V8H19M16,1V3H8V1H6V3H5C3.89,3 3,3.89 3,5V19C3,20.1 3.9,21 5,21H19C20.1,21 21,20.1 21,19V5C21,3.89 20.1,3 19,3H18V1M17,12H12V17H17V12Z"
     id="path9286" />
  <path
     style="fill:#ffffff;stroke:#ffffff;stroke-width:0.1;stroke-dasharray:none"
     d="M 4.5079721,20.917028 C 3.8505416,20.744782 3.3287852,20.249854 3.1029262,19.584229 l -0.077837,-0.22939 V 12.014337 4.6738351 l 0.06715,-0.2150537 C 3.2902525,3.8246301 3.719124,3.3671627 4.3362537,3.13182 L 4.5734767,3.0413549 5.297491,3.0310488 6.0215054,3.0207427 V 2.0193319 1.0179211 H 7.0107527 8 v 1.0035843 1.0035842 h 4 4 V 2.0215054 1.0179211 h 0.989247 0.989248 v 1.0013781 1.0013781 l 0.709677,0.010035 c 0.68226,0.00965 0.718092,0.01299 0.927495,0.086546 0.317987,0.1116983 0.558681,0.2630254 0.785767,0.494021 0.234957,0.2390034 0.386711,0.4854601 0.495357,0.8044915 l 0.07812,0.2293907 V 12 19.354839 l -0.07784,0.22939 c -0.228403,0.673122 -0.75059,1.163866 -1.420843,1.335288 -0.211327,0.05405 -0.393188,0.05536 -7.487986,0.05382 -7.0604152,-0.0015 -7.2774597,-0.0032 -7.4802729,-0.0563 z M 19.010753,13.505376 V 7.9856631 H 12 4.9892473 V 13.505376 19.02509 H 12 19.010753 Z"
     id="path9294" />
  <path
     style="fill:#ffffff;stroke:#ffffff;stroke-width:0.1;stroke-dasharray:none"
     d="M 12.014337,14.494624 V 12 h 2.480287 2.480286 v 2.494624 2.494623 h -2.480286 -2.480287 z"
     id="path9296" />
</svg>
