<?xml version="1.0" standalone="no"?>
<!DOCTYPE svg PUBLIC "-//W3C//DTD SVG 20010904//EN"
 "http://www.w3.org/TR/2001/REC-SVG-20010904/DTD/svg10.dtd">
<svg version="1.0" xmlns="http://www.w3.org/2000/svg"
 width="670.000000pt" height="960.000000pt" viewBox="0 0 670.000000 960.000000"
 preserveAspectRatio="xMidYMid meet">

<g transform="translate(0.000000,960.000000) scale(0.100000,-0.100000)"
fill="#000000" stroke="none">
<path d="M3239 9483 c-123 -127 -1569 -1650 -1649 -1738 -92 -100 -184 -198
-456 -487 -384 -405 -528 -597 -743 -986 -411 -746 -498 -1587 -245 -2373 79
-246 189 -484 341 -739 165 -276 298 -449 560 -727 361 -384 491 -523 608
-648 66 -71 383 -407 705 -745 808 -851 848 -894 860 -924 5 -14 17 -26 27
-26 9 0 38 -20 63 -45 l45 -44 226 237 c766 806 1418 1493 1509 1591 58 63
229 245 380 404 393 415 379 399 503 566 348 466 582 965 671 1429 44 228 51
306 50 572 0 186 -5 289 -17 380 -68 491 -252 951 -573 1435 -121 183 -243
334 -428 530 -368 389 -508 538 -601 640 -55 60 -418 444 -807 853 -390 409
-708 751 -708 760 0 10 -24 34 -54 55 -29 21 -75 61 -102 88 -26 27 -51 49
-54 49 -3 0 -53 -48 -111 -107z m171 -575 c170 -404 250 -770 250 -1150 0
-386 -91 -741 -268 -1042 l-40 -69 -22 34 c-12 19 -50 93 -85 164 -258 529
-272 1152 -41 1832 40 119 138 353 148 353 3 0 29 -55 58 -122z m-571 -355
c-32 -113 -77 -350 -94 -493 -31 -273 -15 -609 41 -858 55 -247 172 -528 304
-731 l61 -93 -43 -47 c-23 -25 -119 -122 -214 -216 -274 -273 -482 -522 -681
-817 -102 -151 -102 -151 -114 -122 -84 212 -155 462 -191 669 -20 116 -22
165 -23 460 0 353 9 456 61 727 86 445 271 864 508 1153 56 67 394 435 401
435 2 0 -5 -30 -16 -67z m1335 -281 c305 -345 494 -754 591 -1279 41 -223 56
-405 56 -688 0 -340 -22 -506 -102 -791 -35 -124 -118 -354 -128 -354 -4 0
-51 65 -105 145 -193 287 -371 499 -698 831 -126 127 -228 235 -228 241 0 6
27 55 61 108 234 372 350 786 351 1250 0 268 -32 527 -97 773 -14 52 -25 97
-25 100 1 10 213 -211 324 -336z m-2485 -947 c-58 -207 -102 -494 -119 -773
-14 -229 1 -638 30 -799 50 -286 144 -581 271 -851 l48 -104 -23 -46 c-82
-163 -198 -479 -250 -687 -89 -354 -108 -863 -50 -1312 17 -134 64 -374 93
-478 11 -38 18 -71 16 -73 -5 -6 -506 530 -599 642 -230 276 -380 505 -516
789 -116 241 -193 482 -241 752 -27 150 -37 499 -20 667 37 358 166 757 352
1093 127 227 334 515 519 720 113 124 503 535 506 532 1 -1 -6 -34 -17 -72z
m3576 -205 c258 -273 345 -373 481 -554 352 -467 547 -926 625 -1466 18 -127
16 -470 -5 -620 -80 -589 -343 -1140 -801 -1675 -92 -107 -558 -604 -564 -599
-1 1 11 58 28 127 36 143 74 360 93 532 17 161 17 735 -1 865 -41 302 -133
617 -268 921 l-66 149 65 148 c117 263 210 565 252 812 49 295 49 733 0 1105
-17 131 -63 361 -93 468 l-19 69 30 -29 c17 -15 126 -129 243 -253z m-1669
-1243 c242 -245 383 -408 535 -617 90 -125 217 -322 263 -410 l29 -56 -89
-147 c-212 -352 -440 -634 -806 -998 l-178 -176 -228 231 c-362 367 -596 666
-796 1014 l-48 82 87 145 c134 224 272 414 469 645 90 105 504 530 516 530 4
0 114 -109 246 -243z m-1286 -1717 c174 -241 331 -421 623 -716 l218 -221 -61
-94 c-119 -182 -236 -449 -291 -663 -110 -426 -98 -929 32 -1400 10 -38 17
-71 15 -73 -6 -6 -335 349 -401 432 -246 309 -424 722 -509 1185 -49 269 -71
719 -47 980 22 235 89 514 181 754 l42 107 57 -88 c32 -49 95 -140 141 -203z
m2335 153 c85 -232 143 -471 166 -690 16 -153 6 -680 -15 -828 -82 -572 -260
-1022 -543 -1375 -61 -76 -287 -323 -362 -394 l-41 -40 20 72 c29 104 77 350
92 472 20 158 16 527 -6 675 -49 329 -162 635 -334 909 -34 54 -62 103 -62
108 0 6 107 119 238 252 325 329 531 577 715 859 39 59 74 107 78 107 4 0 28
-57 54 -127z m-1180 -1569 c90 -187 152 -402 181 -626 13 -102 15 -179 11
-337 -8 -303 -46 -516 -147 -821 -58 -174 -146 -390 -159 -390 -4 0 -29 51
-55 113 -201 473 -288 960 -246 1378 30 292 131 609 266 831 l37 60 34 -58
c18 -33 54 -100 78 -150z"/>
</g>
</svg>
