<?xml version="1.0" encoding="UTF-8" standalone="no"?>
<svg
   version="1.1"
   width="24"
   height="24"
   viewBox="0 0 24 24"
   id="svg173"
   sodipodi:docname="message.svg"
   inkscape:version="1.2 (dc2aedaf03, 2022-05-15)"
   xmlns:inkscape="http://www.inkscape.org/namespaces/inkscape"
   xmlns:sodipodi="http://sodipodi.sourceforge.net/DTD/sodipodi-0.dtd"
   xmlns="http://www.w3.org/2000/svg"
   xmlns:svg="http://www.w3.org/2000/svg">
  <defs
     id="defs177" />
  <sodipodi:namedview
     id="namedview175"
     pagecolor="#ffffff"
     bordercolor="#000000"
     borderopacity="0.25"
     inkscape:showpageshadow="2"
     inkscape:pageopacity="0.0"
     inkscape:pagecheckerboard="0"
     inkscape:deskcolor="#d1d1d1"
     showgrid="false"
     inkscape:zoom="34.875"
     inkscape:cx="7.4121864"
     inkscape:cy="12.014337"
     inkscape:window-width="1920"
     inkscape:window-height="1017"
     inkscape:window-x="-8"
     inkscape:window-y="-8"
     inkscape:window-maximized="1"
     inkscape:current-layer="svg173" />
  <path
     d="M20,2H4C2.9,2 2,2.9 2,4V22L6,18H20C21.1,18 22,17.1 22,16V4C22,2.89 21.1,2 20,2Z"
     id="path171" />
  <path
     style="fill:#ffffff;stroke-width:0.1;stroke:#ffffff;stroke-opacity:1;stroke-dasharray:none"
     d="M 2.0146002,12.817204 C 2.0221382,4.0814542 2.0248284,3.662603 2.0744428,3.5001289 2.2491931,2.9278676 2.6319748,2.4684397 3.1397849,2.2214686 3.5848581,2.0050094 2.813104,2.022353 12,2.022353 c 9.11107,0 8.406456,-0.014481 8.826714,0.1814084 0.541686,0.2524899 0.935452,0.7211252 1.099691,1.3087834 0.04961,0.1775172 0.05209,0.485667 0.05209,6.4802867 0,5.9183815 -0.003,6.3050275 -0.05047,6.4802865 -0.188833,0.697317 -0.732808,1.246644 -1.440568,1.454741 -0.162049,0.04765 -0.588436,0.05102 -7.340502,0.05806 l -7.1684584,0.0075 -1.9858936,1.985378 -1.9858936,1.985378 z"
     id="path283" />
</svg>
