<?xml version="1.0" encoding="UTF-8"?>
<!DOCTYPE svg PUBLIC "-//W3C//DTD SVG 1.1//EN" "http://www.w3.org/Graphics/SVG/1.1/DTD/svg11.dtd">
<!-- Creator: CorelDRAW 2020 (64-Bit) -->
<svg xmlns="http://www.w3.org/2000/svg" xml:space="preserve" width="100" height="100%" version="1.1" style="shape-rendering:geometricPrecision; text-rendering:geometricPrecision; image-rendering:optimizeQuality; fill-rule:evenodd; clip-rule:evenodd"
viewBox="0 0 8267.72 11692.91"
 xmlns:xlink="http://www.w3.org/1999/xlink"
 xmlns:xodm="http://www.corel.com/coreldraw/odm/2003">
 <defs>
  <style type="text/css">
   <![CDATA[
    .str0 {stroke:#373435;stroke-width:6.94;stroke-miterlimit:2.61313}
    .fil1 {fill:#0098DA}
    .fil2 {fill:#FFFFF;fill-rule:nonzero}
    .fil0 {fill:#373435;fill-rule:nonzero}
   ]]>
  </style>
 </defs>
<g id="Layer_x0020_1" viewBox="25% 25% 100% 100%">
  <metadata id="CorelCorpID_0Corel-Layer"/>
  <path class="fil2" d="M3832.01 7080.66l194.96 205.02 -194.96 -205.02 0 0zm-779.95 -1242.75l0 0.03 0 -0.03zm975.91 -1431.25l-195.96 206.08 -0.01 0 195.97 -206.09 0 0.01zm94.59 -99.48l-0.03 0.03 -0.04 0.04 0.03 -0.03 0.04 -0.04zm-680.29 819.85l142.28 -150.43c-57.14,194.98 -50.82,369.43 -47.92,412.74 -1.11,15.89 -10.48,201.14 116.89,457.55 -121.43,244.75 -118.36,424.3 -117.01,451.8 -1.85,25.25 -12.64,210.44 48.19,418.26l-136.58 -144.42 -4.3 -4.43c-125.54,-133.61 -208.12,-263.87 -258.59,-388.11 -3.79,-9.47 -7.36,-19.21 -10.92,-28.96 -1.55,-4.21 -3.13,-8.42 -4.61,-12.61 -21.45,-61.35 -37.6,-127.72 -45.63,-198.18 -0.78,-7.29 -1.75,-14.64 -2.35,-21.87 -0.42,-4.68 -0.61,-9.46 -0.94,-14.17 -11.35,-173.47 32.56,-328.02 92.95,-454.36 51,-104.29 125.04,-212.36 228.54,-322.82zm742.36 -662.33c-2.53,-5.94 -5.06,-11.83 -7.54,-17.44l0 0c2.49,5.61 5.02,11.5 7.54,17.44zm218.54 221.85c241.55,263.72 220.5,659.79 217.3,704.09l-0.19 2.56 0.13 3.35c0.14,2.19 6.18,136.97 -76.43,334.24 -68.69,-111.04 -162.92,-231.28 -292.71,-354.47 -19.39,-18.41 -36.94,-37.14 -53.4,-56.07 182.47,-259.76 156.24,-546.21 96.85,-749.29l84.65 89.01 -0.29 0.28 24.1 26.31zm681.62 754.65l-0.04 -0.06 0 -0.01 0.03 0.06 0.01 0.01zm-2.87 816.69l0.03 -0.07 0 0.02 -0.03 0.07 0 -0.01zm-883.94 115.17c16.43,-18.87 33.94,-37.58 53.29,-55.94 129.82,-123.21 224.03,-243.58 292.71,-354.71 81.2,193.91 76.86,328.18 76.41,337.75l-0.13 2.51 0.22 2.81c0.37,4.15 34.44,426.53 -217.31,701.41l-24.1 26.32 0.28 0.26 -82.92 87.19c59.71,-203.23 84.82,-487.98 -98.46,-747.59zm-215.08 672.39c8.17,35.54 17.79,69.2 28.07,100.5 -10.28,-31.3 -19.91,-64.96 -28.07,-100.5zm-124.01 -38.57c-241.54,-263.74 -220.5,-659.82 -217.31,-704.13l0.19 -2.56 -0.12 -3.35c-0.14,-2.19 -6.18,-136.96 76.43,-334.21 68.69,111.04 162.92,231.29 292.71,354.47 19.33,18.35 36.83,37.04 53.26,55.92 -183.43,259.56 -158.56,543.92 -98.7,747.33l-82.65 -86.9 0.28 -0.26 -24.09 -26.32zm-269.52 -875.45c10.58,-50 27.43,-109.47 54.1,-176.08 -26.67,66.61 -43.52,126.08 -54.1,176.08zm84.15 -324.62c-8.86,-18.78 -16.75,-36.97 -24.15,-54.82 7.4,17.85 15.29,36.04 24.15,54.82zm-53.58 -133.24c-9.57,-28.78 -17.15,-55.72 -23.33,-80.85 6.18,25.13 13.76,52.07 23.33,80.85zm-35.92 -139.88c-2.58,-14.39 -4.68,-27.93 -6.29,-40.37 1.61,12.44 3.71,25.99 6.29,40.37zm-12.03 -127c0.07,-5.58 0.24,-9.74 0.38,-12.37 -0.14,2.64 -0.31,6.79 -0.38,12.37 -0.1,8.39 0.03,19.99 0.84,34.53 0.54,9.68 1.38,20.68 2.65,32.89 -1.27,-12.21 -2.12,-23.21 -2.65,-32.89 -0.81,-14.54 -0.94,-26.14 -0.84,-34.53zm0.56 -15.18c-0.04,-0.17 -0.47,-5.02 -0.93,-13.89 0.46,8.87 0.89,13.72 0.93,13.89zm-0.95 -110.42c0.93,-22.46 2.59,-47.67 5.34,-74.99 -2.75,27.32 -4.41,52.53 -5.34,74.99zm73.57 -371.36l0.01 -0.02c-33.96,89.35 -53.06,177.71 -63.26,253.89 10.21,-76.18 29.31,-164.54 63.25,-253.87zm418.96 410.56c-16.44,18.9 -33.97,37.63 -53.35,56.02 -129.83,123.22 -224.03,243.58 -292.71,354.71 -81.21,-193.92 -76.86,-328.21 -76.42,-337.78l0.11 -2.52 -0.21 -2.8c-0.37,-4.15 -34.25,-426.71 217.32,-701.37l24.09 -26.31 -0.29 -0.28 84.4 -88.76c-59.54,203.21 -85.67,489.31 97.04,749.1zm135.31 -819.24c6.93,17.93 13.8,37.02 20.4,57.1 -6.6,-20.08 -13.47,-39.17 -20.4,-57.1zm-68.41 729.53c-191.89,-304.93 -72.98,-644.43 0,-797.35 73,152.93 191.89,492.44 0,797.35zm98.46 -641.56c5.63,18.99 10.89,38.82 15.72,59.21 -4.83,-20.39 -10.08,-40.22 -15.72,-59.21zm35.35 168.4c-2.81,-23.12 -6.35,-45.78 -10.61,-67.75 4.26,21.97 7.8,44.63 10.61,67.75zm-25.08 323.21c8.37,-27.4 14.9,-54.78 19.78,-81.96 -4.87,27.18 -11.4,54.56 -19.78,81.96zm-74.39 163.76c16.72,-27 31.13,-54.24 43.44,-81.57 -12.32,27.33 -26.72,54.57 -43.44,81.57zm492.78 104.1c-0.13,9.24 -0.38,17.22 -0.64,23.82 0.26,-6.6 0.52,-14.58 0.64,-23.82zm-816.46 729.48c-21.36,-27.57 -41.06,-54.75 -59.18,-81.44 18.13,26.68 37.82,53.87 59.18,81.44zm-106.08 -155.12c6.71,11.24 13.57,22.56 20.85,34.01 -7.28,-11.46 -14.14,-22.76 -20.86,-34.01l0.02 0zm-0.07 -152.26l0 0c14.41,-24.13 29.94,-48.7 46.97,-73.75 -17.03,25.06 -32.57,49.63 -46.97,73.75zm395.49 -367.08c15.04,16.54 30.74,32.97 47.79,49.15 146.13,138.68 243.85,273.78 309.39,394 -65.53,120.2 -163.28,255.42 -309.39,394.1 -17.06,16.18 -32.74,32.6 -47.79,49.13 -15.06,-16.53 -30.72,-32.96 -47.78,-49.13 -146.12,-138.69 -243.85,-273.79 -309.39,-394.02 65.53,-120.19 163.28,-255.41 309.39,-394.08 17.06,-16.18 32.74,-32.61 47.78,-49.15zm134.82 -637.81c2.67,23.86 4.53,48.22 5.24,73.04 -0.71,-24.82 -2.57,-49.18 -5.24,-73.04zm5.43 112.25c-0.5,26.36 -2.29,53.1 -5.59,80.09 3.3,-26.99 5.09,-53.72 5.59,-80.09zm-665.96 507.54c-0.35,-5.26 -0.82,-14.02 -1.15,-25.76 0.33,11.75 0.81,20.5 1.15,25.76zm-1.53 -53.11c0,5.18 0.04,10.06 0.11,14.63 -0.07,-4.57 -0.11,-9.44 -0.11,-14.63zm356 1561.94c-1.94,-26.47 -2.76,-53.5 -2.24,-80.92 -0.53,27.42 0.29,54.45 2.24,80.92zm15.44 114.94c-4.75,-24.5 -8.75,-49.76 -11.74,-75.66 2.98,25.89 6.98,51.16 11.74,75.66zm1118.19 -1549.72l-0.01 -0.06 0 0 0.03 0.07 -0.02 -0.02zm3.58 8.19l0.08 0.2 0.03 0.07 -0.09 -0.21 -0.03 -0.06zm-8.64 76.39c1.26,3.43 2.56,6.88 3.76,10.29 21.68,61.88 37.97,128.89 45.97,200.04 0.72,6.71 1.61,13.47 2.17,20.13 0.44,5.12 0.67,10.35 1.03,15.51 11.14,173.05 -32.68,327.25 -92.93,453.34 -50.93,104.18 -124.86,212.14 -228.17,322.48l-142.7 150.87c57.14,-194.99 50.82,-369.44 47.92,-412.75 1.11,-15.89 10.47,-201.13 -116.9,-457.53 121.44,-244.76 118.37,-424.33 117.03,-451.83 1.85,-25.26 12.64,-210.48 -48.22,-418.35l139.8 147.72c126.08,133.94 208.93,264.5 259.56,389.04 4.07,10.15 7.9,20.57 11.69,31.03zm-1414.61 341.86l0 0c-5.68,12.02 -11.07,23.83 -16.14,35.47 5.07,-11.64 10.46,-23.47 16.14,-35.47zm457.28 576.83c191.91,304.93 73,644.44 0.02,797.35 -73,-152.9 -191.93,-492.42 -0.02,-797.35zm957.18 -73.39c119.87,-196.92 161.64,-384.21 158.76,-552.65 -0.58,-154.24 -39.4,-323.77 -140.75,-501.59 -53.5,-96.89 -110.75,-170.98 -149.33,-215.98l-53.69 -56.82c-4.35,-4.68 -8.21,-9.33 -12.65,-14.02l-148.6 -157c-32.26,-37.3 -53.04,-58.65 -53.9,-59.54l-483.97 -508.96 0.97 -1 -6.64 -6.65 3.33 -5.15 -26.9 -20.17 -6.93 -5.19 -11.64 -11.65 -2.18 -2.17 -22.9 -23.25 -0.17 0.17 -0.85 -0.86 -25.43 26.75 -8.03 8.44 -13.43 13.43 -22.03 22.06 0.75 1.01 -488.17 513.39c0,0 -20.83,21.31 -54.31,59.99l-135.93 143.58 -1.01 1.07 -9.13 9.65 -1.95 2.06 -0.04 0.04 -59.74 63.18 -6.22 7.19c-34.51,40.25 -83.92,103.87 -132.25,186.1 -115.25,189.68 -157.89,370.39 -158.16,533.94 -0.03,2.07 -0.1,4.14 -0.11,6.22 0.02,5.18 0.18,10.31 0.29,15.44 1.19,153.58 40.22,322.11 141.22,498.87l0.88 1.57c5.15,8.97 10,17.9 15.46,26.92 48.41,82.44 97.94,146.23 132.51,186.54l54.01 57.15c4.18,4.52 7.88,8.99 12.15,13.5l148.61 156.96c32.47,37.56 53.69,59.36 53.91,59.56l462.34 486.19 -2.32 0.81 40.65 40.65 9.4 9.42 4.03 15.56 15.44 3.9 2.24 2.23 2.2 2.21 22.89 23.18 0.15 -0.15 0.81 0.82 25.43 -26.67 8.58 -8.99 23.49 -23.5 44.92 -44.93 -2.72 -0.68 456.68 -480.24 0 0c0,0 21.25,-21.81 54.32,-60.02l135.15 -142.73 0.47 -0.49 5.6 -5.91 6.79 -7.19 0.11 -0.13 41.33 -43.69 1.22 0.83 17.54 -20.67 22.21 -23.48 -1.25 -1.4c32.85,-39.92 75.04,-96.71 116.5,-167.08z"/>
</g>
</svg>
